<?xml version="1.0" standalone="no"?>
<!DOCTYPE svg PUBLIC "-//W3C//DTD SVG 20010904//EN"
 "http://www.w3.org/TR/2001/REC-SVG-20010904/DTD/svg10.dtd">
<svg version="1.0" xmlns="http://www.w3.org/2000/svg"
 width="100.000000pt" height="100.000000pt" viewBox="0 0 100.000000 100.000000"
 preserveAspectRatio="xMidYMid meet">

<g transform="translate(0.000000,100.000000) scale(0.100000,-0.100000)"
fill="#000000" stroke="none">
<path d="M136 531 c-19 -99 -20 -91 12 -91 41 0 66 25 52 51 -8 13 -7 19 0 19
6 0 10 10 8 23 -2 17 -11 23 -35 25 -28 3 -32 0 -37 -27z m57 13 c11 -11 -5
-34 -24 -34 -12 0 -19 7 -19 20 0 19 28 28 43 14z m-6 -60 c6 -16 -12 -34 -34
-34 -14 0 -18 32 -6 43 12 12 34 7 40 -9z"/>
<path d="M240 506 c0 -12 -3 -31 -6 -43 -4 -13 -2 -23 4 -23 6 0 12 15 14 33
2 24 8 33 26 35 33 5 27 19 -8 19 -24 0 -30 -5 -30 -21z"/>
<path d="M335 514 c-9 -9 -15 -28 -13 -43 2 -21 9 -26 33 -28 27 -2 28 -1 6 5
-36 11 -38 32 -3 32 36 0 44 8 31 31 -12 23 -32 24 -54 3z m43 -12 c2 -7 -6
-12 -17 -12 -21 0 -27 11 -14 24 9 9 26 2 31 -12z"/>
<path d="M451 527 c2 -1 12 -9 22 -16 15 -12 17 -12 11 3 -3 9 -13 16 -22 16
-8 0 -13 -1 -11 -3z"/>
<path d="M433 483 c9 -2 23 -2 30 0 6 3 -1 5 -18 5 -16 0 -22 -2 -12 -5z"/>
<path d="M420 461 c0 -5 7 -12 16 -15 14 -5 15 -4 4 9 -14 17 -20 19 -20 6z"/>
</g>
</svg>
